<svg width="283" height="283" viewBox="0 0 283 283" fill="none" xmlns="http://www.w3.org/2000/svg">
<g clip-path="url(#clip0_123_407)">
<path d="M281.5 206.588C281.157 205.849 280.838 205.236 280.541 204.746C275.631 195.902 266.248 185.048 252.398 172.18L252.105 171.885L251.958 171.74L251.81 171.592H251.662C245.376 165.6 241.395 161.571 239.728 159.508C236.678 155.579 235.995 151.601 237.662 147.571C238.84 144.526 243.263 138.096 250.923 128.271C254.952 123.064 258.143 118.891 260.5 115.747C277.495 93.1528 284.863 78.7148 282.603 72.4273L281.725 70.958C281.135 70.0735 279.612 69.2642 277.16 68.5262C274.701 67.7898 271.558 67.668 267.726 68.1588L225.292 68.4519C224.604 68.2083 223.623 68.231 222.344 68.5262C221.067 68.8214 220.428 68.9695 220.428 68.9695L219.689 69.3385L219.103 69.7819C218.612 70.075 218.071 70.5906 217.481 71.3275C216.895 72.0619 216.404 72.9238 216.012 73.9059C211.392 85.7919 206.139 96.8428 200.244 107.058C196.609 113.15 193.271 118.429 190.222 122.898C187.178 127.367 184.624 130.659 182.562 132.769C180.498 134.881 178.635 136.574 176.962 137.852C175.291 139.131 174.016 139.671 173.133 139.474C172.248 139.276 171.414 139.08 170.625 138.884C169.251 137.999 168.146 136.796 167.312 135.274C166.475 133.751 165.911 131.835 165.617 129.527C165.324 127.217 165.15 125.23 165.101 123.559C165.055 121.891 165.076 119.531 165.175 116.486C165.278 113.439 165.324 111.378 165.324 110.297C165.324 106.564 165.396 102.512 165.542 98.1408C165.691 93.7695 165.811 90.3061 165.912 87.7546C166.012 85.2004 166.059 82.4982 166.059 79.6494C166.059 76.8006 165.885 74.5665 165.542 72.945C165.204 71.3255 164.684 69.7535 163.999 68.2295C163.31 66.707 162.302 65.5293 160.979 64.6933C159.653 63.8582 158.004 63.1956 156.043 62.7032C150.836 61.525 144.206 60.8876 136.149 60.7885C117.879 60.5924 106.14 61.7722 100.934 64.3263C98.8708 65.4054 97.0041 66.8799 95.3351 68.745C93.5664 70.9069 93.3198 72.0867 94.5965 72.2808C100.491 73.1638 104.664 75.2761 107.12 78.6157L108.006 80.3854C108.694 81.6622 109.381 83.9226 110.069 87.1636C110.756 90.4047 111.2 93.9899 111.395 97.9173C111.885 105.089 111.885 111.229 111.395 116.336C110.903 121.445 110.438 125.423 109.995 128.271C109.552 131.12 108.889 133.429 108.006 135.196C107.12 136.964 106.532 138.045 106.236 138.437C105.942 138.83 105.696 139.077 105.501 139.174C104.224 139.663 102.896 139.912 101.522 139.912C100.146 139.912 98.4765 139.224 96.5123 137.848C94.5486 136.472 92.5105 134.582 90.3982 132.175C88.2858 129.768 85.9036 126.403 83.2504 122.082C80.5993 117.76 77.8485 112.652 74.9997 106.758L72.6428 102.484C71.1693 99.7345 69.1566 95.7307 66.6025 90.4764C64.0468 85.2201 61.7879 80.1356 59.8242 75.224C59.0392 73.1612 57.86 71.5907 56.2885 70.5101L55.551 70.0667C55.0607 69.6745 54.2737 69.258 53.194 68.8142C52.1128 68.3709 50.9847 68.053 49.8049 67.8574L9.43199 68.1505C5.3064 68.1505 2.50715 69.0851 1.0332 70.9518L0.443318 71.8348C0.148633 72.3267 0 73.1122 0 74.1934C0 75.2741 0.294685 76.6004 0.884572 78.1708C6.77828 92.0226 13.1876 105.381 20.1124 118.25C27.0372 131.118 33.0548 141.483 38.1615 149.337C43.2692 157.197 48.4755 164.614 53.7803 171.587C59.0852 178.561 62.5966 183.031 64.3147 184.995C66.0348 186.962 67.3859 188.433 68.368 189.415L72.0524 192.951C74.4098 195.309 77.8717 198.133 82.4396 201.423C87.0085 204.715 92.0667 207.956 97.6167 211.151C103.168 214.341 109.625 216.944 116.994 218.958C124.361 220.973 131.531 221.782 138.506 221.391H155.451C158.888 221.095 161.492 220.014 163.261 218.149L163.848 217.41C164.242 216.824 164.611 215.913 164.951 214.688C165.296 213.46 165.468 212.107 165.468 210.636C165.367 206.413 165.688 202.606 166.423 199.218C167.158 195.83 167.995 193.276 168.931 191.556C169.867 189.837 170.923 188.387 172.098 187.212C173.275 186.033 174.115 185.32 174.607 185.074C175.096 184.827 175.487 184.659 175.782 184.558C178.139 183.773 180.914 184.534 184.109 186.844C187.302 189.153 190.297 192.003 193.098 195.391C195.898 198.781 199.262 202.585 203.19 206.808C207.121 211.033 210.559 214.173 213.504 216.239L216.45 218.007C218.418 219.187 220.972 220.268 224.116 221.25C227.254 222.232 230.004 222.477 232.365 221.987L270.084 221.398C273.815 221.398 276.718 220.78 278.777 219.555C280.84 218.327 282.066 216.974 282.461 215.503C282.856 214.03 282.877 212.359 282.536 210.491C282.187 208.627 281.842 207.324 281.5 206.588Z" fill="white"/>
</g>
<defs>
<clipPath id="clip0_123_407">
<rect width="283" height="283" fill="white"/>
</clipPath>
</defs>
</svg>
