<svg width="197" height="197" viewBox="0 0 197 197" fill="none" xmlns="http://www.w3.org/2000/svg">
<g clip-path="url(#clip0_123_410)">
<path d="M178.531 24.625H18.4688C13.5705 24.625 8.87293 26.5708 5.40937 30.0344C1.94581 33.4979 0 38.1955 0 43.0938L0 153.906C0 158.804 1.94581 163.502 5.40937 166.966C8.87293 170.429 13.5705 172.375 18.4688 172.375H178.531C183.429 172.375 188.127 170.429 191.591 166.966C195.054 163.502 197 158.804 197 153.906V43.0938C197 38.1955 195.054 33.4979 191.591 30.0344C188.127 26.5708 183.429 24.625 178.531 24.625ZM156.787 36.9375L98.5 82.9616L40.2126 36.9375H156.787ZM24.625 160.062V57.2039L98.5 114.026L172.375 57.1916V160.062H24.625Z" fill="white"/>
</g>
<defs>
<clipPath id="clip0_123_410">
<rect width="197" height="197" fill="white"/>
</clipPath>
</defs>
</svg>
