<svg width="219" height="219" viewBox="0 0 219 219" fill="none" xmlns="http://www.w3.org/2000/svg">
<g clip-path="url(#clip0_123_405)">
<path fill-rule="evenodd" clip-rule="evenodd" d="M167.754 207.86C170.692 209.94 174.479 210.46 177.855 209.183C181.231 207.896 183.713 205.013 184.462 201.518C192.391 164.251 211.627 69.9262 218.845 36.0269C219.392 33.4719 218.48 30.8165 216.472 29.1101C214.465 27.4037 211.682 26.911 209.2 27.8326C170.938 41.9946 53.1073 86.2052 4.94553 104.026C1.88866 105.158 -0.10059 108.096 -0.0002148 111.317C0.109285 114.547 2.28103 117.349 5.41091 118.289C27.0098 124.749 55.3612 133.737 55.3612 133.737C55.3612 133.737 68.6106 173.75 75.5183 194.099C76.3851 196.654 78.3835 198.662 81.0206 199.355C83.6486 200.04 86.4591 199.319 88.421 197.466C99.517 186.991 116.672 170.794 116.672 170.794C116.672 170.794 149.267 194.692 167.754 207.86ZM67.2875 128.682L82.6084 179.216L86.012 147.215C86.012 147.215 145.206 93.8246 178.95 63.3927C179.936 62.4985 180.073 61.002 179.251 59.9526C178.439 58.9032 176.943 58.6569 175.82 59.3686C136.711 84.3437 67.2875 128.682 67.2875 128.682Z" fill="white"/>
</g>
<defs>
<clipPath id="clip0_123_405">
<rect width="219" height="219" fill="white"/>
</clipPath>
</defs>
</svg>
