<svg width="50" height="50" viewBox="0 0 50 50" fill="none" xmlns="http://www.w3.org/2000/svg">
<path d="M31.3242 25.224C31.3242 21.364 28.1832 18.224 24.3242 18.224C20.4652 18.224 17.3242 21.364 17.3242 25.224C17.3242 29.083 20.4652 32.224 24.3242 32.224C28.1832 32.224 31.3242 29.083 31.3242 25.224ZM24.3242 30.224C21.5672 30.224 19.3242 27.981 19.3242 25.224C19.3242 22.467 21.5672 20.224 24.3242 20.224C27.0812 20.224 29.3242 22.467 29.3242 25.224C29.3242 27.981 27.0812 30.224 24.3242 30.224Z" fill="#231F20"/>
<path d="M23.3242 34.09V40.224C23.3242 40.777 23.7712 41.224 24.3242 41.224C24.8772 41.224 25.3242 40.777 25.3242 40.224V34.09C25.3242 33.537 24.8772 33.09 24.3242 33.09C23.7712 33.09 23.3242 33.537 23.3242 34.09Z" fill="#231F20"/>
<path d="M23.3242 10.224V16.358C23.3242 16.91 23.7712 17.358 24.3242 17.358C24.8772 17.358 25.3242 16.91 25.3242 16.358V10.224C25.3242 9.672 24.8772 9.224 24.3242 9.224C23.7712 9.224 23.3242 9.671 23.3242 10.224Z" fill="#231F20"/>
<path d="M34.224 36.537C34.419 36.732 34.675 36.83 34.931 36.83C35.187 36.83 35.443 36.732 35.638 36.537C36.029 36.146 36.029 35.514 35.638 35.123L31.3 30.786C30.909 30.395 30.277 30.395 29.886 30.786C29.495 31.177 29.495 31.809 29.886 32.2L34.224 36.537Z" fill="#231F20"/>
<path d="M13.011 13.91C12.62 14.301 12.62 14.933 13.011 15.324L17.349 19.661C17.544 19.856 17.8 19.954 18.056 19.954C18.312 19.954 18.568 19.856 18.763 19.661C19.154 19.27 19.154 18.638 18.763 18.247L14.425 13.91C14.034 13.52 13.401 13.52 13.011 13.91Z" fill="#231F20"/>
<path d="M39.3244 24.224H33.1904C32.6374 24.224 32.1904 24.672 32.1904 25.224C32.1904 25.776 32.6374 26.224 33.1904 26.224H39.3244C39.8774 26.224 40.3244 25.776 40.3244 25.224C40.3244 24.672 39.8774 24.224 39.3244 24.224Z" fill="#231F20"/>
<path d="M8.32422 25.224C8.32422 25.776 8.77122 26.224 9.32422 26.224H15.4582C16.0112 26.224 16.4582 25.776 16.4582 25.224C16.4582 24.672 16.0112 24.224 15.4582 24.224H9.32422C8.77122 24.224 8.32422 24.671 8.32422 25.224Z" fill="#231F20"/>
<path d="M34.224 13.91L29.886 18.248C29.495 18.639 29.495 19.271 29.886 19.662C30.081 19.857 30.337 19.955 30.593 19.955C30.849 19.955 31.105 19.857 31.3 19.662L35.638 15.324C36.029 14.933 36.029 14.301 35.638 13.91C35.247 13.519 34.614 13.52 34.224 13.91Z" fill="#231F20"/>
<path d="M13.718 36.83C13.974 36.83 14.23 36.732 14.425 36.537L18.763 32.2C19.154 31.809 19.154 31.177 18.763 30.786C18.372 30.395 17.74 30.395 17.349 30.786L13.011 35.123C12.62 35.514 12.62 36.146 13.011 36.537C13.206 36.732 13.462 36.83 13.718 36.83Z" fill="#231F20"/>
</svg>
